<svg width="18" height="24" viewBox="0 0 18 24" fill="none" xmlns="http://www.w3.org/2000/svg">
<path d="M0.916992 3.22222V21C0.916992 21.5894 1.12661 22.1546 1.49973 22.5713C1.87285 22.9881 2.37891 23.2222 2.90658 23.2222H14.8441C15.3717 23.2222 15.8778 22.9881 16.2509 22.5713C16.624 22.1546 16.8337 21.5894 16.8337 21V8.04667C16.8336 7.75062 16.7806 7.45757 16.6778 7.18472C16.575 6.91186 16.4243 6.66471 16.2348 6.45778L11.8179 1.63333C11.4462 1.2274 10.9471 1.00007 10.4272 1H2.90658C2.37891 1 1.87285 1.23413 1.49973 1.65087C1.12661 2.06762 0.916992 2.63285 0.916992 3.22222V3.22222Z" stroke="#979797" stroke-linecap="round" stroke-linejoin="round"/>
<path d="M10.8652 1V5.44444C10.8652 6.03381 11.0749 6.59905 11.448 7.01579C11.8211 7.43254 12.3271 7.66667 12.8548 7.66667H16.834" stroke="#979797" stroke-linejoin="round"/>
</svg>
