<svg width="320" height="320" viewBox="0 0 320 320" fill="none" xmlns="http://www.w3.org/2000/svg">
<g clip-path="url(#clip0)">
<path d="M291.535 256.371L265.559 214.618C265.559 214.618 304.898 229.479 300.433 256.371H291.535Z" fill="#E5E5E5"/>
<path d="M22.2679 256.648L21.2817 256.627C21.6631 244.762 22.833 232.943 24.7823 221.26C29.0466 196.246 36.1373 179.819 45.8575 172.434L46.4238 173.307C23.7172 190.559 22.2794 255.989 22.2679 256.648Z" fill="#E5E5E5"/>
<path d="M34.5945 256.392L33.6084 256.371C33.6296 255.19 34.2459 227.339 44.3783 219.641L44.9446 220.514C35.221 227.902 34.5993 256.108 34.5945 256.392Z" fill="#E5E5E5"/>
<path d="M52.0342 173.404C54.7573 173.404 56.9649 171.015 56.9649 168.068C56.9649 165.122 54.7573 162.733 52.0342 162.733C49.3111 162.733 47.1035 165.122 47.1035 168.068C47.1035 171.015 49.3111 173.404 52.0342 173.404Z" fill="#6C63FF"/>
<path d="M49.5923 219.289C52.3154 219.289 54.5229 216.9 54.5229 213.953C54.5229 211.007 52.3154 208.618 49.5923 208.618C46.8692 208.618 44.6616 211.007 44.6616 213.953C44.6616 216.9 46.8692 219.289 49.5923 219.289Z" fill="#6C63FF"/>
<path d="M32.2964 176.602C33.223 183.007 30.8079 188.735 30.8079 188.735C30.8079 188.735 26.8903 184.08 25.9637 177.675C25.037 171.27 27.4522 165.542 27.4522 165.542C27.4522 165.542 31.3697 170.198 32.2964 176.602Z" fill="#E5E5E5"/>
<path d="M48.4133 192.157C42.7464 194.26 37.1128 192.685 37.1128 192.685C37.1128 192.685 40.6668 187.7 46.3336 185.596C52.0003 183.493 57.634 185.068 57.634 185.068C57.634 185.068 54.08 190.054 48.4133 192.157Z" fill="#E5E5E5"/>
<path d="M48.5955 232.793C46.0308 233.664 43.2994 233.792 40.6748 233.163C42.3413 230.867 44.5858 229.141 47.1378 228.194C49.6899 227.247 52.4406 227.118 55.0586 227.824C53.3434 230.064 51.1148 231.777 48.5955 232.793Z" fill="#E5E5E5"/>
<path d="M319.507 257.438H0.493066C0.362297 257.438 0.236891 257.382 0.144423 257.281C0.0519551 257.181 0 257.046 0 256.904C0 256.763 0.0519551 256.627 0.144423 256.527C0.236891 256.427 0.362297 256.371 0.493066 256.371H319.507C319.638 256.371 319.763 256.427 319.856 256.527C319.948 256.627 320 256.763 320 256.904C320 257.046 319.948 257.181 319.856 257.281C319.763 257.382 319.638 257.438 319.507 257.438Z" fill="#CBCBCB"/>
<path d="M202.055 282.034L198.021 293.395L155.605 281.965L161.559 265.197L202.055 282.034Z" fill="#FFB7B7"/>
<path d="M213.26 283.368L200.254 320L199.826 319.822C196.331 318.369 193.513 315.473 191.991 311.772C190.47 308.071 190.369 303.867 191.711 300.086L191.711 300.085L199.656 277.711L213.26 283.368Z" fill="#2F2E41"/>
<path d="M137.602 139.785L119.118 141.658L118.201 201.171C118.446 204.088 119.737 206.785 121.797 208.684C123.857 210.583 126.523 211.534 129.223 211.333L140.942 210.459L137.602 139.785Z" fill="#E5E5E5"/>
<path d="M202.767 136.856L190.12 136.68L189.371 207.394C192.165 207.495 194.949 206.971 197.549 205.857C200.149 204.742 202.508 203.059 204.48 200.914C206.452 198.768 207.995 196.206 209.011 193.387C210.028 190.568 210.496 187.553 210.388 184.529L202.767 136.856Z" fill="#E5E5E5"/>
<path d="M129.381 232.515C129.081 234.567 128.646 236.592 128.08 238.576C127.442 240.518 126.456 242.314 125.873 244.276C124.013 250.53 126.591 257.502 130.71 262.33C134.281 266.499 138.891 269.461 143.984 270.859C147.699 271.87 151.562 272.016 155.391 272.156C165.993 272.545 176.868 272.893 186.914 269.206C190.088 268.013 193.154 266.505 196.073 264.704C196.995 264.229 197.806 263.537 198.449 262.679C199.216 261.499 199.314 259.968 199.307 258.525C199.284 253.662 198.373 248.823 198.59 243.965C198.709 241.274 199.175 238.585 198.946 235.903C198.629 232.856 197.449 229.99 195.569 227.697C193.688 225.403 191.199 223.795 188.441 223.091C185.591 222.429 182.636 222.79 179.734 223.092C172.203 223.875 164.639 224.241 157.073 224.188C149.342 224.135 141.66 222.858 133.968 222.724C131.693 222.685 131.739 223.444 131.015 225.826C130.348 228.019 129.802 230.252 129.381 232.515Z" fill="#2F2E41"/>
<path d="M99.1517 228.563C97.073 227.997 94.931 227.751 92.7889 227.831C90.5381 227.965 88.3397 228.617 86.3396 229.742C84.3396 230.867 82.5839 232.44 81.1892 234.357C79.7945 236.273 78.7928 238.489 78.2507 240.856C77.7086 243.224 77.6385 245.689 78.0451 248.089C78.5642 250.688 79.4127 253.197 80.5664 255.544C82.2539 259.25 84.2778 262.947 87.4017 265.322C89.2291 266.711 91.3441 267.577 93.4339 268.429L109.887 275.136C112.307 276.122 114.728 277.109 117.172 278.024C129.453 282.617 142.256 285.372 155.226 286.21C159.177 286.465 163.187 286.536 167.041 285.562C167.956 285.331 168.931 284.987 169.461 284.148C169.774 283.557 169.959 282.896 170.002 282.215L171.014 274.546C171.157 273.466 171.294 272.329 170.928 271.313C170.464 270.024 169.302 269.213 168.193 268.524C157.376 261.801 144.747 258.093 135.642 248.866C133.499 246.694 131.705 243.251 129.101 241.775C126.148 240.102 122.67 239.147 119.618 237.605C112.945 234.235 106.384 230.362 99.1517 228.563Z" fill="#2F2E41"/>
<path opacity="0.1" d="M115.577 238.902C121.393 240.874 145.946 254.535 150.154 259.305C149.59 259.525 130.451 247.918 129.876 247.732C124.656 246.036 119.407 244.33 114.449 241.849C113.452 241.35 107.97 239.004 108.218 237.642C108.498 236.105 114.545 238.552 115.577 238.902Z" fill="black"/>
<path d="M150.674 119.782L135.017 132.647C135.017 132.647 118.495 133.206 119.053 144.635C119.611 156.064 126.224 210.175 126.224 210.175L127.658 228.793L154.872 237.184C169.576 241.718 185.111 242.078 199.981 238.23L196.747 219.552C196.747 219.552 209.842 134.722 201.953 130.987C194.064 127.252 189.133 128.319 189.133 128.319L179.245 118.982L150.674 119.782Z" fill="#E5E5E5"/>
<path d="M197.023 99.0026C197.023 115.703 182.752 113.177 165.148 113.177C147.544 113.177 133.273 115.703 133.273 99.0026C133.273 82.3019 140.244 52.6989 165.148 52.6989C190.91 52.6989 197.023 82.3019 197.023 99.0026Z" fill="#2F2E41"/>
<path d="M181.717 104.662C190.093 95.5984 190.093 80.903 181.717 71.8391C173.341 62.7752 159.76 62.7752 151.384 71.8391C143.008 80.903 143.008 95.5985 151.384 104.662C159.76 113.726 173.341 113.726 181.717 104.662Z" fill="#FFB7B7"/>
<path d="M140.26 87.6629H148.743L152.486 76.3232L153.234 87.6629H157.289L159.472 81.0481L159.909 87.6629H190.037C190.037 81.1467 187.644 74.8974 183.386 70.2898C179.128 65.6822 173.353 63.0936 167.331 63.0936H162.965C156.943 63.0936 151.168 65.6822 146.91 70.2898C142.652 74.8974 140.26 81.1467 140.26 87.6629Z" fill="#2F2E41"/>
<path d="M186.668 122.45H143.771V178.473H186.668V122.45Z" fill="#6C63FF"/>
<path d="M146.136 281.501L150.17 292.862L192.586 281.431L186.632 264.664L146.136 281.501Z" fill="#FFB7B7"/>
<path d="M148.535 277.177L156.479 299.551L156.479 299.552C157.821 303.334 157.721 307.538 156.199 311.239C154.677 314.94 151.859 317.835 148.365 319.288L147.936 319.466L134.93 282.834L148.535 277.177Z" fill="#2F2E41"/>
<path d="M230.92 224.214C234.328 223.289 237.86 223.028 241.352 223.443C244.141 223.775 247.014 224.615 249.05 226.704C251.529 229.246 252.325 233.178 252.391 236.872C252.5 244.231 250.245 251.402 246.01 257.161C244.976 258.618 243.746 259.899 242.362 260.962C240.868 261.973 239.277 262.803 237.615 263.437L200.769 279.163C191.076 283.301 181.349 287.45 171.238 290.177C170.688 290.464 170.056 290.503 169.479 290.286C168.903 290.068 168.43 289.612 168.165 289.017C168.157 288.999 168.149 288.981 168.141 288.962C164.913 283.972 162.204 278.611 160.065 272.977C159.964 272.843 159.894 272.685 159.861 272.515C159.829 272.346 159.834 272.171 159.877 272.004C159.92 271.837 160 271.685 160.109 271.558C160.219 271.432 160.355 271.336 160.505 271.279L186.567 255.075C188.433 253.915 190.321 252.737 191.871 251.12C192.997 249.939 193.92 248.55 194.594 247.018C195.135 245.797 195.185 242.915 195.875 242.013C196.551 241.129 198.862 241.059 199.929 240.711C201.435 240.212 202.909 239.609 204.343 238.906C210.172 236.084 215.364 231.983 220.952 228.679C224.087 226.74 227.436 225.239 230.92 224.214Z" fill="#2F2E41"/>
<path opacity="0.1" d="M216.146 236.315C211.668 239.954 205.871 243.299 201.433 247.033C199.919 248.308 174.671 263.668 174.314 265.708C178.454 266.462 204.827 246.498 208.6 244.506C212.373 242.514 215.718 239.705 219.033 236.916C219.877 236.206 223.457 234.069 221.032 233.275C219.666 232.828 217.154 235.587 216.146 236.315Z" fill="black"/>
<path d="M296.622 95.8867C305.131 95.8867 312.029 88.4222 312.029 79.2144C312.029 70.0066 305.131 62.5422 296.622 62.5422C288.113 62.5422 281.215 70.0066 281.215 79.2144C281.215 88.4222 288.113 95.8867 296.622 95.8867Z" fill="#F1F1F1"/>
<path d="M268.107 98.8727C274.076 98.8727 278.915 93.6365 278.915 87.1773C278.915 80.718 274.076 75.4818 268.107 75.4818C262.138 75.4818 257.299 80.718 257.299 87.1773C257.299 93.6365 262.138 98.8727 268.107 98.8727Z" fill="#F1F1F1"/>
<path d="M70.1207 91.2435C74.9069 91.2435 78.7869 87.0449 78.7869 81.8658C78.7869 76.6867 74.9069 72.4882 70.1207 72.4882C65.3346 72.4882 61.4546 76.6867 61.4546 81.8658C61.4546 87.0449 65.3346 91.2435 70.1207 91.2435Z" fill="#F1F1F1"/>
<path d="M84.3883 97.5495C87.7458 97.5495 90.4676 94.6042 90.4676 90.9711C90.4676 87.338 87.7458 84.3928 84.3883 84.3928C81.0309 84.3928 78.3091 87.338 78.3091 90.9711C78.3091 94.6042 81.0309 97.5495 84.3883 97.5495Z" fill="#F1F1F1"/>
<path d="M168.458 14.3367C172.117 14.3367 175.082 11.1273 175.082 7.16836C175.082 3.20938 172.117 0 168.458 0C164.799 0 161.833 3.20938 161.833 7.16836C161.833 11.1273 164.799 14.3367 168.458 14.3367Z" fill="#F1F1F1"/>
<path opacity="0.17" d="M128.979 158.198L129.572 153.252C129.572 153.252 151.661 154.997 148.209 160.866C144.758 166.735 136.375 167.268 136.375 167.268L128.979 158.198Z" fill="#2F2E41"/>
<path d="M145.653 136.692C146.918 136.843 148.137 137.295 149.222 138.015C150.306 138.736 151.23 139.708 151.927 140.861C152.562 141.913 152.994 143.093 153.196 144.33C153.399 145.567 153.369 146.835 153.107 148.06C152.845 149.284 152.358 150.438 151.673 151.453C150.989 152.468 150.122 153.323 149.125 153.966C148.759 154.2 148.378 154.403 147.983 154.573L134.406 199.513C134.013 200.4 133.461 201.193 132.783 201.849C132.105 202.504 131.314 203.008 130.456 203.331C129.598 203.655 128.689 203.792 127.781 203.734C126.874 203.676 125.986 203.424 125.169 202.994C124.351 202.563 123.621 201.962 123.019 201.225C122.417 200.488 121.956 199.629 121.661 198.698C121.367 197.768 121.246 196.783 121.304 195.802C121.363 194.82 121.6 193.861 122.003 192.979L136.442 148.538C136.048 147.068 135.996 145.515 136.289 144.018C136.583 142.52 137.212 141.124 138.123 139.953C139.034 138.782 140.197 137.871 141.511 137.302C142.824 136.734 144.247 136.524 145.653 136.692Z" fill="#FFB7B7"/>
<path d="M129.182 153.673C129.182 153.673 136.962 168.056 148.209 160.866L137.309 206.003H128.125L118.625 204.083L121.285 185.434L129.182 153.673Z" fill="#E5E5E5"/>
<path d="M184.731 163.504L178.286 153.93C178.286 153.93 181.384 143.999 193.394 147.63C193.394 147.63 201.037 166.142 184.731 163.504Z" fill="#E5E5E5"/>
<path opacity="0.17" d="M184.731 163.504L178.286 153.93C178.286 153.93 181.384 143.999 193.394 147.63C193.394 147.63 201.037 166.142 184.731 163.504Z" fill="#2F2E41"/>
<path d="M186.437 130.053C188.296 130.988 189.784 132.614 190.628 134.636C191.473 136.658 191.619 138.94 191.04 141.069L205.479 185.509C205.881 186.391 206.118 187.351 206.177 188.332C206.235 189.314 206.114 190.298 205.82 191.229C205.526 192.16 205.064 193.018 204.463 193.756C203.861 194.493 203.13 195.094 202.313 195.524C201.495 195.955 200.607 196.206 199.7 196.264C198.793 196.322 197.883 196.186 197.025 195.862C196.167 195.539 195.376 195.035 194.698 194.379C194.02 193.724 193.468 192.93 193.075 192.043L179.498 147.104C179.103 146.933 178.722 146.73 178.356 146.497C177.359 145.853 176.492 144.998 175.808 143.983C175.123 142.968 174.636 141.814 174.374 140.59C174.112 139.366 174.082 138.097 174.285 136.86C174.488 135.623 174.919 134.443 175.554 133.391C176.251 132.238 177.175 131.267 178.259 130.546C179.344 129.825 180.563 129.373 181.828 129.222C183.406 129.029 185.002 129.316 186.437 130.053Z" fill="#FFB7B7"/>
<path d="M178.286 153.93C178.286 153.93 188.919 160.911 193.394 147.63L208.378 190.322L203.926 198.747L203.282 198.806C200.626 199.045 197.955 198.584 195.501 197.46C193.046 196.337 190.879 194.586 189.188 192.357C185.738 187.811 183.389 182.406 182.354 176.631L178.286 153.93Z" fill="#E5E5E5"/>
</g>
<defs>
<clipPath id="clip0">
<rect width="320" height="320" fill="white"/>
</clipPath>
</defs>
</svg>
