<svg width="16" height="13" viewBox="0 0 16 13" fill="none" xmlns="http://www.w3.org/2000/svg">
<path d="M0.5 0C0.367392 0 0.240215 0.0684812 0.146447 0.190378C0.0526785 0.312276 0 0.477603 0 0.649992C0 0.822381 0.0526785 0.987709 0.146447 1.10961C0.240215 1.2315 0.367392 1.29998 0.5 1.29998H15.5C15.6326 1.29998 15.7598 1.2315 15.8536 1.10961C15.9473 0.987709 16 0.822381 16 0.649992C16 0.477603 15.9473 0.312276 15.8536 0.190378C15.7598 0.0684812 15.6326 0 15.5 0H0.5Z" fill="#151522"/>
<path d="M0.5 3.90002C0.367392 3.90002 0.240215 3.96851 0.146447 4.0904C0.0526785 4.2123 0 4.37763 0 4.55002C0 4.72241 0.0526785 4.88773 0.146447 5.00963C0.240215 5.13153 0.367392 5.20001 0.5 5.20001H15.5C15.6326 5.20001 15.7598 5.13153 15.8536 5.00963C15.9473 4.88773 16 4.72241 16 4.55002C16 4.37763 15.9473 4.2123 15.8536 4.0904C15.7598 3.96851 15.6326 3.90002 15.5 3.90002H0.5Z" fill="#151522"/>
<path d="M0 8.45004C0 8.27765 0.0526785 8.11232 0.146447 7.99043C0.240215 7.86853 0.367392 7.80005 0.5 7.80005H15.5C15.6326 7.80005 15.7598 7.86853 15.8536 7.99043C15.9473 8.11232 16 8.27765 16 8.45004C16 8.62243 15.9473 8.78776 15.8536 8.90966C15.7598 9.03155 15.6326 9.10003 15.5 9.10003H0.5C0.367392 9.10003 0.240215 9.03155 0.146447 8.90966C0.0526785 8.78776 0 8.62243 0 8.45004Z" fill="#151522"/>
<path d="M0.5 11.7C0.367392 11.7 0.240215 11.7685 0.146447 11.8904C0.0526785 12.0123 0 12.1776 0 12.35C0 12.5224 0.0526785 12.6877 0.146447 12.8096C0.240215 12.9315 0.367392 13 0.5 13H10.5C10.6326 13 10.7598 12.9315 10.8536 12.8096C10.9473 12.6877 11 12.5224 11 12.35C11 12.1776 10.9473 12.0123 10.8536 11.8904C10.7598 11.7685 10.6326 11.7 10.5 11.7H0.5Z" fill="#151522"/>
</svg>
