<svg width="64" height="64" viewBox="0 0 64 64" fill="none" xmlns="http://www.w3.org/2000/svg">
<g filter="url(#filter0_d)">
<circle cx="32" cy="28" r="24" fill="white"/>
<path d="M24.9947 28.8889H36.7929L33.1818 33.7334C33.0129 33.9603 32.9317 34.2528 32.9559 34.5466C32.9802 34.8404 33.108 35.1115 33.3111 35.3001C33.5143 35.4887 33.7762 35.5794 34.0392 35.5523C34.3023 35.5252 34.5449 35.3825 34.7138 35.1556L39.6877 28.4889C39.7212 28.4359 39.7511 28.3802 39.7772 28.3223C39.7772 28.2667 39.7772 28.2334 39.8469 28.1778C39.892 28.0504 39.9156 27.9148 39.9165 27.7778C39.9156 27.6409 39.892 27.5052 39.8469 27.3778C39.8469 27.3223 39.8469 27.2889 39.7772 27.2334C39.7511 27.1755 39.7212 27.1198 39.6877 27.0667L34.7138 20.4001C34.6202 20.2746 34.5031 20.1738 34.3707 20.1046C34.2383 20.0355 34.0939 19.9998 33.9478 20.0001C33.7153 19.9996 33.4901 20.09 33.3111 20.2556C33.2104 20.3489 33.1271 20.4635 33.0661 20.5927C33.005 20.722 32.9674 20.8635 32.9554 21.009C32.9434 21.1545 32.9572 21.3013 32.9961 21.4408C33.0349 21.5804 33.098 21.71 33.1818 21.8223L36.7929 26.6667H24.9947C24.7308 26.6667 24.4778 26.7838 24.2912 26.9922C24.1047 27.2005 23.9999 27.4832 23.9999 27.7778C23.9999 28.0725 24.1047 28.3551 24.2912 28.5635C24.4778 28.7719 24.7308 28.8889 24.9947 28.8889Z" fill="#F3B007"/>
</g>
<defs>
<filter id="filter0_d" x="0" y="0" width="64" height="64" filterUnits="userSpaceOnUse" color-interpolation-filters="sRGB">
<feFlood flood-opacity="0" result="BackgroundImageFix"/>
<feColorMatrix in="SourceAlpha" type="matrix" values="0 0 0 0 0 0 0 0 0 0 0 0 0 0 0 0 0 0 127 0" result="hardAlpha"/>
<feOffset dy="4"/>
<feGaussianBlur stdDeviation="4"/>
<feColorMatrix type="matrix" values="0 0 0 0 0 0 0 0 0 0 0 0 0 0 0 0 0 0 0.1 0"/>
<feBlend mode="normal" in2="BackgroundImageFix" result="effect1_dropShadow"/>
<feBlend mode="normal" in="SourceGraphic" in2="effect1_dropShadow" result="shape"/>
</filter>
</defs>
</svg>
