<svg width="20" height="16" viewBox="0 0 20 16" fill="none" xmlns="http://www.w3.org/2000/svg">
<path d="M7.49942 8C8.4939 8 9.44765 7.57857 10.1509 6.82843C10.8541 6.07828 11.2491 5.06087 11.2491 4C11.2491 2.93913 10.8541 1.92172 10.1509 1.17157C9.44765 0.421427 8.4939 0 7.49942 0C6.50493 0 5.55118 0.421427 4.84797 1.17157C4.14477 1.92172 3.74971 2.93913 3.74971 4C3.74971 5.06087 4.14477 6.07828 4.84797 6.82843C5.55118 7.57857 6.50493 8 7.49942 8ZM9.99922 4C9.99922 4.70724 9.73585 5.38552 9.26705 5.88562C8.79824 6.38572 8.16241 6.66667 7.49942 6.66667C6.83643 6.66667 6.20059 6.38572 5.73179 5.88562C5.26298 5.38552 4.99961 4.70724 4.99961 4C4.99961 3.29276 5.26298 2.61448 5.73179 2.11438C6.20059 1.61428 6.83643 1.33333 7.49942 1.33333C8.16241 1.33333 8.79824 1.61428 9.26705 2.11438C9.73585 2.61448 9.99922 3.29276 9.99922 4ZM14.9988 14.6667C14.9988 16 13.7489 16 13.7489 16H1.2499C1.2499 16 0 16 0 14.6667C0 13.3333 1.2499 9.33333 7.49942 9.33333C13.7489 9.33333 14.9988 13.3333 14.9988 14.6667ZM13.7489 14.6613C13.7477 14.3333 13.5564 13.3467 12.709 12.4427C11.8941 11.5733 10.3604 10.6667 7.49942 10.6667C4.63714 10.6667 3.10476 11.5733 2.28982 12.4427C1.44239 13.3467 1.2524 14.3333 1.2499 14.6613H13.7489Z" fill="#434343"/>
<path fill-rule="evenodd" clip-rule="evenodd" d="M19.8163 4.19464C19.8745 4.25656 19.9207 4.33013 19.9522 4.41113C19.9837 4.49212 19.9999 4.57895 19.9999 4.66664C19.9999 4.75433 19.9837 4.84116 19.9522 4.92215C19.9207 5.00314 19.8745 5.07671 19.8163 5.13864L16.0666 9.13864C16.0085 9.20072 15.9396 9.24998 15.8637 9.28359C15.7877 9.3172 15.7063 9.3345 15.6241 9.3345C15.5419 9.3345 15.4605 9.3172 15.3846 9.28359C15.3087 9.24998 15.2397 9.20072 15.1817 9.13864L13.3068 7.13864C13.1895 7.01346 13.1235 6.84367 13.1235 6.66664C13.1235 6.4896 13.1895 6.31982 13.3068 6.19464C13.4242 6.06946 13.5833 5.99913 13.7493 5.99913C13.9152 5.99913 14.0744 6.06946 14.1917 6.19464L15.6241 7.72397L18.9314 4.19464C18.9894 4.13255 19.0584 4.0833 19.1343 4.04969C19.2102 4.01608 19.2916 3.99878 19.3738 3.99878C19.456 3.99878 19.5374 4.01608 19.6134 4.04969C19.6893 4.0833 19.7583 4.13255 19.8163 4.19464Z" fill="#434343"/>
</svg>
